# xmcd
#
# Track frame offsets:
#	150
#	18920
#	35680
#	54205
#	68977
#	82945
#	96397
#	112267
#	126565
#
# Disc length: 1790 seconds
#
# Revision: 2
# Processed by: cddbd v1.5.2PL0 Copyright (c) Steve Scherf et al.
# Submitted via: audiograbber 1.83.01
#
DISCID=7a06fc09
DTITLE=Various Artist - Mistletoe and Memories
DYEAR=1988
DGENRE=Christmas
TTITLE0=Alabama - Santa Claus (I Still Believe In You)
TTITLE1=K.T. Oslin - Blue Christmas
TTITLE2=Elvis Presley - O Come, All Ye Faithful
TTITLE3=Kenny Rogers - Silent Night
TTITLE4=Dolly Parton - White Christmas
TTITLE5=The Judds - Silver Bells
TTITLE6=Ronnie Milsap - It's Just Not Christmas (If I Can't Spend It With You)
TTITLE7=Michael Johnson - This Time Of Year
TTITLE8=Baillie And The Boys - In A Manger
EXTD=
EXTT0=Alabama
EXTT1=K.T. Oslin
EXTT2=Elvis Presley
EXTT3=Kenny Rogers
EXTT4=Dolly Parton
EXTT5=The Judds
EXTT6=Ronnie Milsap
EXTT7=Michael Johnson
EXTT8=Baillie and The Boys
PLAYORDER=
